<?xml version="1.0" encoding="UTF-8"?>
<svg version="1.1" xmlns="http://www.w3.org/2000/svg" width="1024" height="1024">
<path d="M0 0 C337.92 0 675.84 0 1024 0 C1024 337.92 1024 675.84 1024 1024 C686.08 1024 348.16 1024 0 1024 C0 686.08 0 348.16 0 0 Z " fill="#FDFDFD" transform="translate(0,0)"/>
<path d="M0 0 C1.22384869 -0.00789489 1.22384869 -0.00789489 2.47242159 -0.01594928 C3.36504928 -0.01155279 4.25767696 -0.00715631 5.17735398 -0.0026266 C6.60994481 -0.00743631 6.60994481 -0.00743631 8.07147688 -0.0123432 C11.29637453 -0.02069528 14.52108897 -0.01470073 17.74598992 -0.00884742 C20.07155464 -0.01186572 22.39711837 -0.01575358 24.72268033 -0.02043998 C30.45953001 -0.02968542 36.19632696 -0.02956074 41.93318144 -0.02552836 C48.80300529 -0.02121078 55.67280449 -0.02845183 62.54262379 -0.03601964 C76.78703304 -0.05127929 91.03142455 -0.05296269 105.27584027 -0.05049662 C116.27398077 -0.04866558 127.27211544 -0.05041957 138.27025521 -0.05472106 C139.84907283 -0.05532345 141.42789044 -0.05592465 143.00670806 -0.05652466 C145.38569631 -0.05743189 147.76468456 -0.05834056 150.1436728 -0.05925701 C172.26937665 -0.06768959 194.39507831 -0.07202014 216.52078354 -0.06785029 C217.77256026 -0.06761573 217.77256026 -0.06761573 219.0496254 -0.06737643 C223.27950812 -0.06657061 227.50939083 -0.06572484 231.73927353 -0.06486312 C232.57937496 -0.06469204 233.41947639 -0.06452095 234.28503544 -0.06434468 C235.98392564 -0.06399802 237.68281585 -0.06364949 239.38170605 -0.06329909 C265.81915672 -0.05794133 292.25657404 -0.06587262 318.69401848 -0.08433264 C348.38177972 -0.10503783 378.0695203 -0.11577818 407.75728917 -0.11175716 C410.92138087 -0.1113618 414.08547258 -0.11100025 417.24956429 -0.11065978 C418.02867062 -0.11056905 418.80777695 -0.11047831 419.61049257 -0.11038483 C431.38403897 -0.1092177 443.15756454 -0.11587594 454.93110573 -0.1264717 C468.31759635 -0.1385066 481.70404101 -0.14010245 495.09053229 -0.12768153 C501.924582 -0.12162462 508.7585497 -0.12035972 515.59259331 -0.13268393 C521.84353413 -0.14347309 528.09430921 -0.14052292 534.34524204 -0.12642225 C536.61170135 -0.123756 538.87817337 -0.12620167 541.14462028 -0.13415811 C544.21608769 -0.14419571 547.28697133 -0.13590065 550.35841477 -0.12288111 C551.24636013 -0.13019046 552.13430548 -0.13749981 553.04915828 -0.14503065 C559.505948 -0.08797213 563.63545318 1.25616647 568.58122551 5.626849 C573.67833043 11.41275187 574.34079466 15.36874478 574.32951653 22.87221032 C574.34463028 24.31706559 574.34463028 24.31706559 574.36004937 25.79110986 C574.38852158 28.97215174 574.39440577 32.1527189 574.39763176 35.33388025 C574.40727399 37.54959572 574.41736656 39.76530928 574.42788994 41.98102075 C574.44584994 46.6254597 574.45141115 51.26973129 574.44963372 55.91420251 C574.44932903 61.856151 574.49027056 67.79702256 574.54195035 73.73871595 C574.57536211 78.31563476 574.58138978 82.8922947 574.57980454 87.46932298 C574.58333769 89.65933391 574.59656834 91.84935203 574.61980164 94.03924257 C574.64930923 97.10802236 574.64053087 100.17448427 574.62248528 103.24330407 C574.6393438 104.14176049 574.65620232 105.04021692 574.67357171 105.96589929 C574.56722381 113.10891138 571.88171822 117.26385629 566.89372551 122.251849 C566.79511459 123.91244604 566.76709469 125.57726519 566.76623356 127.24078733 C566.76322591 128.3281476 566.76021827 129.41550787 566.75711948 130.53581846 C566.75886985 131.74531547 566.76062022 132.95481249 566.76242363 134.20096093 C566.76030792 135.47432272 566.75819221 136.74768451 566.75601238 138.05963302 C566.75140054 140.86705898 566.74999739 143.67446286 566.75097764 146.48189241 C566.75256532 151.04909018 566.74737916 155.61626592 566.74135125 160.1834591 C566.73322517 166.81543294 566.72828984 173.44740291 566.72506058 180.07938081 C566.71957137 190.56221531 566.70268063 201.04501712 566.6837188 211.52783471 C566.67736141 215.11220527 566.67105304 218.69657591 566.66474164 222.28094655 C566.66315787 223.17683904 566.66157411 224.07273152 566.65994236 224.99577226 C566.6419923 235.20246671 566.62577336 245.40916348 566.61076653 255.61586267 C566.60939066 256.54926111 566.60801479 257.48265954 566.60659722 258.44434278 C566.5846805 273.56084523 566.57391483 288.67733932 566.56639578 303.79385484 C566.55832381 319.30677297 566.53502877 334.81961928 566.49844211 350.3324964 C566.4764147 359.90395339 566.46675321 369.4752627 566.47294245 379.04674374 C566.47611786 385.60938277 566.46478148 392.17189579 566.44204804 398.73449583 C566.42938368 402.52080702 566.42320596 406.30683748 566.43446457 410.0931595 C566.44652003 414.20030773 566.42771079 418.30674334 566.40597832 422.41385156 C566.41442086 423.60773352 566.4228634 424.80161549 566.43156177 426.0316757 C566.36419575 432.90838181 565.59806904 437.40607144 561.89372551 443.251849 C556.00603089 448.98857709 550.48349528 449.54599444 542.64322293 449.5091179 C541.70389226 449.51262398 540.7645616 449.51613005 539.79676637 449.51974237 C536.63140104 449.52908807 533.46621841 449.52412486 530.30084527 449.51927453 C528.01566521 449.52300918 525.73048644 449.52760996 523.4453097 449.53300518 C517.15170367 449.54527328 510.85815065 449.54497024 504.56453538 449.54261643 C498.47863831 449.54225102 492.3927613 449.55122404 486.30687155 449.5598422 C472.31908544 449.57919645 458.33131398 449.58481093 444.34351606 449.58595632 C433.54372104 449.58687489 422.74393179 449.59098885 411.94413865 449.59735757 C408.8371084 449.59915261 405.73007815 449.60093224 402.62304789 449.60270733 C401.85066782 449.60314942 401.07828776 449.60359152 400.28250223 449.60404701 C378.5536855 449.61635731 356.82487076 449.62424794 335.09605038 449.62336046 C334.27662719 449.6233293 333.45720399 449.62329814 332.6129498 449.62326604 C328.4596234 449.62309982 324.30629701 449.62290174 320.15297062 449.62269662 C318.91563608 449.62263679 318.91563608 449.62263679 317.65330489 449.62257574 C315.98517724 449.62249487 314.3170496 449.62241127 312.64892195 449.62232496 C286.68793891 449.62109909 260.72700807 449.63611847 234.76603997 449.66347009 C205.61040826 449.69417473 176.45481087 449.7114036 147.29916197 449.70954365 C144.19181736 449.70939438 141.08447276 449.70929697 137.97712815 449.70923501 C137.21199982 449.7092117 136.4468715 449.7091884 135.65855746 449.70916438 C123.33319983 449.70910277 111.00788745 449.72188706 98.68254328 449.73909954 C86.30137627 449.75603272 73.92027563 449.75804803 61.53910346 449.7448809 C54.82855427 449.73812955 48.11818972 449.73831304 41.40764534 449.7555874 C35.2695769 449.77122606 29.13180452 449.7685491 22.99374371 449.75101914 C20.76836243 449.74792888 18.54295955 449.75165704 16.31760371 449.76273929 C13.30139611 449.77677001 10.28624004 449.76634494 7.27006924 449.74962693 C5.96264516 449.76453147 5.96264516 449.76453147 4.62880847 449.77973711 C-1.72477753 449.70486647 -5.38230683 447.95868478 -9.96955574 443.4002865 C-10.44779792 442.81505212 -10.92604011 442.22981775 -11.41877449 441.626849 C-11.9099073 441.03645837 -12.40104011 440.44606775 -12.90705574 439.8377865 C-15.21200981 436.78954105 -15.23078736 434.74799423 -15.22932231 430.97696 C-15.23131336 429.85132453 -15.23330441 428.72568906 -15.23535579 427.56594342 C-15.23244295 426.31888375 -15.22953011 425.07182408 -15.226529 423.78697473 C-15.22738343 422.47036202 -15.22823785 421.15374931 -15.22911817 419.79723924 C-15.23136286 416.13044028 -15.22734219 412.46367032 -15.22234011 408.79687506 C-15.21803543 404.84731639 -15.21948204 400.89775945 -15.22024238 396.94819909 C-15.22076761 390.10122934 -15.21762097 383.25426909 -15.21200454 376.40730172 C-15.20388933 366.50764624 -15.2012743 356.60799536 -15.20001655 346.7083369 C-15.19782607 330.6481313 -15.19116607 314.58793076 -15.18171394 298.5277279 C-15.17253973 282.92356149 -15.16545894 267.31939646 -15.16120613 251.7152279 C-15.1609434 250.75394077 -15.16068068 249.79265364 -15.16040999 248.8022366 C-15.15910499 243.97990694 -15.15784127 239.15757726 -15.15659809 234.33524758 C-15.14622558 194.3074445 -15.12860736 154.27964708 -15.10627449 114.251849 C-15.91959236 114.12052575 -16.73291023 113.98920251 -17.57087409 113.85389978 C-18.64345466 113.67842614 -19.71603523 113.50295251 -20.82111824 113.3221615 C-21.88193611 113.14958825 -22.94275398 112.97701501 -24.03571784 112.79921228 C-36.46405733 110.58371278 -45.81502248 103.99822206 -53.38752449 93.89638025 C-56.2049114 89.56144629 -58.2944088 85.085936 -60.10627449 80.251849 C-60.35248542 79.59829431 -60.59869636 78.94473962 -60.85236824 78.27138025 C-64.32480276 67.03985066 -62.83564295 52.81407803 -58.04377449 42.189349 C-51.76202671 30.56811562 -40.61197072 20.40176814 -27.81330574 16.564349 C-23.52163237 15.5291715 -19.5424318 15.02435375 -15.10627449 15.251849 C-15.20682136 14.14389978 -15.20682136 14.14389978 -15.30939949 13.01356775 C-15.05907059 9.61005751 -14.14106517 8.54593888 -11.85627449 6.064349 C-11.25299324 5.39016931 -10.64971199 4.71598962 -10.02814949 4.02138025 C-6.90541642 1.1461809 -4.23678068 0.00216879 0 0 Z " fill="#FCFBFC" transform="translate(248.10627448558807,319.7481510043144)"/>
<path d="M0 0 C1.22384869 -0.00789489 1.22384869 -0.00789489 2.47242159 -0.01594928 C3.36504928 -0.01155279 4.25767696 -0.00715631 5.17735398 -0.0026266 C6.60994481 -0.00743631 6.60994481 -0.00743631 8.07147688 -0.0123432 C11.29637453 -0.02069528 14.52108897 -0.01470073 17.74598992 -0.00884742 C20.07155464 -0.01186572 22.39711837 -0.01575358 24.72268033 -0.02043998 C30.45953001 -0.02968542 36.19632696 -0.02956074 41.93318144 -0.02552836 C48.80300529 -0.02121078 55.67280449 -0.02845183 62.54262379 -0.03601964 C76.78703304 -0.05127929 91.03142455 -0.05296269 105.27584027 -0.05049662 C116.27398077 -0.04866558 127.27211544 -0.05041957 138.27025521 -0.05472106 C139.84907283 -0.05532345 141.42789044 -0.05592465 143.00670806 -0.05652466 C145.38569631 -0.05743189 147.76468456 -0.05834056 150.1436728 -0.05925701 C172.26937665 -0.06768959 194.39507831 -0.07202014 216.52078354 -0.06785029 C217.77256026 -0.06761573 217.77256026 -0.06761573 219.0496254 -0.06737643 C223.27950812 -0.06657061 227.50939083 -0.06572484 231.73927353 -0.06486312 C232.57937496 -0.06469204 233.41947639 -0.06452095 234.28503544 -0.06434468 C235.98392564 -0.06399802 237.68281585 -0.06364949 239.38170605 -0.06329909 C265.81915672 -0.05794133 292.25657404 -0.06587262 318.69401848 -0.08433264 C348.38177972 -0.10503783 378.0695203 -0.11577818 407.75728917 -0.11175716 C410.92138087 -0.1113618 414.08547258 -0.11100025 417.24956429 -0.11065978 C418.02867062 -0.11056905 418.80777695 -0.11047831 419.61049257 -0.11038483 C431.38403897 -0.1092177 443.15756454 -0.11587594 454.93110573 -0.1264717 C468.31759635 -0.1385066 481.70404101 -0.14010245 495.09053229 -0.12768153 C501.924582 -0.12162462 508.7585497 -0.12035972 515.59259331 -0.13268393 C521.84353413 -0.14347309 528.09430921 -0.14052292 534.34524204 -0.12642225 C536.61170135 -0.123756 538.87817337 -0.12620167 541.14462028 -0.13415811 C544.21608769 -0.14419571 547.28697133 -0.13590065 550.35841477 -0.12288111 C551.24636013 -0.13019046 552.13430548 -0.13749981 553.04915828 -0.14503065 C559.505948 -0.08797213 563.63545318 1.25616647 568.58122551 5.626849 C573.67833043 11.41275187 574.34079466 15.36874478 574.32951653 22.87221032 C574.34463028 24.31706559 574.34463028 24.31706559 574.36004937 25.79110986 C574.38852158 28.97215174 574.39440577 32.1527189 574.39763176 35.33388025 C574.40727399 37.54959572 574.41736656 39.76530928 574.42788994 41.98102075 C574.44584994 46.6254597 574.45141115 51.26973129 574.44963372 55.91420251 C574.44932903 61.856151 574.49027056 67.79702256 574.54195035 73.73871595 C574.57536211 78.31563476 574.58138978 82.8922947 574.57980454 87.46932298 C574.58333769 89.65933391 574.59656834 91.84935203 574.61980164 94.03924257 C574.64930923 97.10802236 574.64053087 100.17448427 574.62248528 103.24330407 C574.6393438 104.14176049 574.65620232 105.04021692 574.67357171 105.96589929 C574.56722381 113.10891138 571.88171822 117.26385629 566.89372551 122.251849 C566.79511459 123.91244604 566.76709469 125.57726519 566.76623356 127.24078733 C566.76322591 128.3281476 566.76021827 129.41550787 566.75711948 130.53581846 C566.75886985 131.74531547 566.76062022 132.95481249 566.76242363 134.20096093 C566.76030792 135.47432272 566.75819221 136.74768451 566.75601238 138.05963302 C566.75140054 140.86705898 566.74999739 143.67446286 566.75097764 146.48189241 C566.75256532 151.04909018 566.74737916 155.61626592 566.74135125 160.1834591 C566.73322517 166.81543294 566.72828984 173.44740291 566.72506058 180.07938081 C566.71957137 190.56221531 566.70268063 201.04501712 566.6837188 211.52783471 C566.67736141 215.11220527 566.67105304 218.69657591 566.66474164 222.28094655 C566.66315787 223.17683904 566.66157411 224.07273152 566.65994236 224.99577226 C566.6419923 235.20246671 566.62577336 245.40916348 566.61076653 255.61586267 C566.60939066 256.54926111 566.60801479 257.48265954 566.60659722 258.44434278 C566.5846805 273.56084523 566.57391483 288.67733932 566.56639578 303.79385484 C566.55832381 319.30677297 566.53502877 334.81961928 566.49844211 350.3324964 C566.4764147 359.90395339 566.46675321 369.4752627 566.47294245 379.04674374 C566.47611786 385.60938277 566.46478148 392.17189579 566.44204804 398.73449583 C566.42938368 402.52080702 566.42320596 406.30683748 566.43446457 410.0931595 C566.44652003 414.20030773 566.42771079 418.30674334 566.40597832 422.41385156 C566.41442086 423.60773352 566.4228634 424.80161549 566.43156177 426.0316757 C566.36419575 432.90838181 565.59806904 437.40607144 561.89372551 443.251849 C556.00603089 448.98857709 550.48349528 449.54599444 542.64322293 449.5091179 C541.70389226 449.51262398 540.7645616 449.51613005 539.79676637 449.51974237 C536.63140104 449.52908807 533.46621841 449.52412486 530.30084527 449.51927453 C528.01566521 449.52300918 525.73048644 449.52760996 523.4453097 449.53300518 C517.15170367 449.54527328 510.85815065 449.54497024 504.56453538 449.54261643 C498.47863831 449.54225102 492.3927613 449.55122404 486.30687155 449.5598422 C472.31908544 449.57919645 458.33131398 449.58481093 444.34351606 449.58595632 C433.54372104 449.58687489 422.74393179 449.59098885 411.94413865 449.59735757 C408.8371084 449.59915261 405.73007815 449.60093224 402.62304789 449.60270733 C401.85066782 449.60314942 401.07828776 449.60359152 400.28250223 449.60404701 C378.5536855 449.61635731 356.82487076 449.62424794 335.09605038 449.62336046 C334.27662719 449.6233293 333.45720399 449.62329814 332.6129498 449.62326604 C328.4596234 449.62309982 324.30629701 449.62290174 320.15297062 449.62269662 C318.91563608 449.62263679 318.91563608 449.62263679 317.65330489 449.62257574 C315.98517724 449.62249487 314.3170496 449.62241127 312.64892195 449.62232496 C286.68793891 449.62109909 260.72700807 449.63611847 234.76603997 449.66347009 C205.61040826 449.69417473 176.45481087 449.7114036 147.29916197 449.70954365 C144.19181736 449.70939438 141.08447276 449.70929697 137.97712815 449.70923501 C137.21199982 449.7092117 136.4468715 449.7091884 135.65855746 449.70916438 C123.33319983 449.70910277 111.00788745 449.72188706 98.68254328 449.73909954 C86.30137627 449.75603272 73.92027563 449.75804803 61.53910346 449.7448809 C54.82855427 449.73812955 48.11818972 449.73831304 41.40764534 449.7555874 C35.2695769 449.77122606 29.13180452 449.7685491 22.99374371 449.75101914 C20.76836243 449.74792888 18.54295955 449.75165704 16.31760371 449.76273929 C13.30139611 449.77677001 10.28624004 449.76634494 7.27006924 449.74962693 C5.96264516 449.76453147 5.96264516 449.76453147 4.62880847 449.77973711 C-1.72477753 449.70486647 -5.38230683 447.95868478 -9.96955574 443.4002865 C-10.44779792 442.81505212 -10.92604011 442.22981775 -11.41877449 441.626849 C-11.9099073 441.03645837 -12.40104011 440.44606775 -12.90705574 439.8377865 C-15.21200981 436.78954105 -15.23078736 434.74799423 -15.22932231 430.97696 C-15.23131336 429.85132453 -15.23330441 428.72568906 -15.23535579 427.56594342 C-15.23244295 426.31888375 -15.22953011 425.07182408 -15.226529 423.78697473 C-15.22738343 422.47036202 -15.22823785 421.15374931 -15.22911817 419.79723924 C-15.23136286 416.13044028 -15.22734219 412.46367032 -15.22234011 408.79687506 C-15.21803543 404.84731639 -15.21948204 400.89775945 -15.22024238 396.94819909 C-15.22076761 390.10122934 -15.21762097 383.25426909 -15.21200454 376.40730172 C-15.20388933 366.50764624 -15.2012743 356.60799536 -15.20001655 346.7083369 C-15.19782607 330.6481313 -15.19116607 314.58793076 -15.18171394 298.5277279 C-15.17253973 282.92356149 -15.16545894 267.31939646 -15.16120613 251.7152279 C-15.1609434 250.75394077 -15.16068068 249.79265364 -15.16040999 248.8022366 C-15.15910499 243.97990694 -15.15784127 239.15757726 -15.15659809 234.33524758 C-15.14622558 194.3074445 -15.12860736 154.27964708 -15.10627449 114.251849 C-15.91959236 114.12052575 -16.73291023 113.98920251 -17.57087409 113.85389978 C-18.64345466 113.67842614 -19.71603523 113.50295251 -20.82111824 113.3221615 C-21.88193611 113.14958825 -22.94275398 112.97701501 -24.03571784 112.79921228 C-36.46405733 110.58371278 -45.81502248 103.99822206 -53.38752449 93.89638025 C-56.2049114 89.56144629 -58.2944088 85.085936 -60.10627449 80.251849 C-60.35248542 79.59829431 -60.59869636 78.94473962 -60.85236824 78.27138025 C-64.32480276 67.03985066 -62.83564295 52.81407803 -58.04377449 42.189349 C-51.76202671 30.56811562 -40.61197072 20.40176814 -27.81330574 16.564349 C-23.52163237 15.5291715 -19.5424318 15.02435375 -15.10627449 15.251849 C-15.20682136 14.14389978 -15.20682136 14.14389978 -15.30939949 13.01356775 C-15.05907059 9.61005751 -14.14106517 8.54593888 -11.85627449 6.064349 C-11.25299324 5.39016931 -10.64971199 4.71598962 -10.02814949 4.02138025 C-6.90541642 1.1461809 -4.23678068 0.00216879 0 0 Z M4.89372551 127.251849 C4.89372551 227.901849 4.89372551 328.551849 4.89372551 432.251849 C12.15372551 432.251849 19.41372551 432.251849 26.89372551 432.251849 C27.06386693 425.23723434 27.06386693 425.23723434 27.19157708 418.2218197 C27.22219231 417.34098718 27.25280755 416.46015466 27.28435051 415.55263025 C27.31577141 414.20938684 27.31577141 414.20938684 27.34782708 412.8390072 C28.13395248 409.11334936 28.91077092 407.69683158 31.89372551 405.251849 C35.76731612 404.52549408 39.58882621 404.62374153 43.51872551 404.69325525 C44.65777337 404.69558664 45.79682122 404.69791803 46.97038567 404.70032007 C49.3778512 404.7100605 51.78529369 404.7318541 54.19255364 404.76478845 C57.87974736 404.81416182 61.56560621 404.82626693 65.25310051 404.83192712 C67.59165639 404.84601444 69.93020067 404.86221932 72.26872551 404.88075525 C73.37296868 404.88611795 74.47721184 404.89148065 75.61491692 404.89700586 C76.64278313 404.91299325 77.67064934 404.92898065 78.72966301 404.94545251 C79.63249016 404.95609231 80.53531731 404.96673211 81.46550286 404.97769433 C84.06327826 405.27099208 85.69483076 405.85414605 87.89372551 407.251849 C89.17978212 409.82396221 89.10416492 411.82091865 89.21013176 414.6971615 C89.24823967 415.66669763 89.28634758 416.63623376 89.32561028 417.63514978 C89.36871331 418.86991052 89.41181633 420.10467126 89.45622551 421.376849 C89.67278801 427.254974 89.67278801 427.254974 89.89372551 433.251849 C97.81372551 433.251849 105.73372551 433.251849 113.89372551 433.251849 C113.93110833 431.48196618 113.96849114 429.71208337 114.00700676 427.88856775 C114.07265452 425.57213988 114.13910226 423.25573458 114.20622551 420.939349 C114.22878411 419.7721029 114.2513427 418.60485681 114.27458489 417.40223962 C114.31003411 416.2839779 114.34548333 415.16571618 114.38200676 414.01356775 C114.40819085 412.98191491 114.43437493 411.95026208 114.46135247 410.88734704 C114.89372551 408.251849 114.89372551 408.251849 115.97868645 406.41664392 C118.95642743 404.60547586 121.59089864 404.86240878 125.04606926 404.8534115 C125.74261117 404.85054132 126.43915307 404.84767114 127.1568023 404.84471399 C128.62860724 404.84267449 130.10043937 404.84819648 131.57219231 404.86073571 C133.81996433 404.87676867 136.06593186 404.86089768 138.31364739 404.84169275 C139.74529197 404.84367567 141.17693543 404.84752038 142.60856926 404.8534115 C143.90915276 404.85679528 145.20973626 404.86017907 146.54973137 404.8636654 C150.08899896 405.27451708 151.56431776 405.57103591 153.89372551 408.251849 C154.43962395 410.79555017 154.43962395 410.79555017 154.50310051 413.79481775 C154.53532708 414.86796228 154.56755364 415.94110681 154.60075676 417.04677087 C154.61493645 418.16632165 154.62911614 419.28587243 154.64372551 420.439349 C154.67337395 421.57050134 154.70302239 422.70165368 154.73356926 423.86708337 C154.80431702 426.66161966 154.8512789 429.45673959 154.89372551 432.251849 C162.48372551 432.251849 170.07372551 432.251849 177.89372551 432.251849 C177.93110833 430.55415368 177.96849114 428.85645837 178.00700676 427.10731775 C178.0726555 424.88463899 178.13910321 422.66198374 178.20622551 420.439349 C178.22878411 419.31979821 178.2513427 418.20024743 178.27458489 417.04677087 C178.31003411 415.97362634 178.34548333 414.90048181 178.38200676 413.79481775 C178.40819085 412.80505944 178.43437493 411.81530114 178.46135247 410.79555017 C178.89372551 408.251849 178.89372551 408.251849 179.98088372 406.43031579 C182.94632059 404.60336445 185.55804228 404.86244705 189.01091301 404.8534115 C189.70508324 404.85054132 190.39925347 404.84767114 191.11445916 404.84471399 C192.58206796 404.84267424 194.049704 404.84819799 195.51726067 404.86073571 C197.75405184 404.87674398 199.98902296 404.86091121 202.22575676 404.84169275 C203.65414615 404.84367615 205.0825344 404.84752183 206.51091301 404.8534115 C208.45393303 404.85848718 208.45393303 404.85848718 210.43620598 404.8636654 C214.16227152 405.28199927 216.08021435 405.77275353 218.89372551 408.251849 C219.55314934 410.88734704 219.55314934 410.88734704 219.60075676 414.01356775 C219.62976067 415.13182946 219.65876458 416.25009118 219.68864739 417.40223962 C219.69444817 418.56948571 219.70024895 419.73673181 219.70622551 420.939349 C219.73136223 422.11819665 219.75649895 423.29704431 219.78239739 424.51161462 C219.84136603 427.42466562 219.87038313 430.33829471 219.89372551 433.251849 C227.48372551 433.251849 235.07372551 433.251849 242.89372551 433.251849 C242.96720208 430.59702478 242.96720208 430.59702478 243.04216301 427.88856775 C243.11718884 425.57214541 243.19273675 423.25573994 243.26872551 420.939349 C243.29966301 419.7721029 243.33060051 418.60485681 243.36247551 417.40223962 C243.40114739 416.2839779 243.43981926 415.16571618 243.47966301 414.01356775 C243.51108391 412.98191491 243.54250481 411.95026208 243.57487786 410.88734704 C243.89372551 408.251849 243.89372551 408.251849 245.89372551 405.251849 C248.47177905 404.94717343 250.80590957 404.83167627 253.38591301 404.8534115 C254.12826195 404.85054132 254.87061089 404.84767114 255.63545525 404.84471399 C257.20739293 404.84267103 258.77935589 404.8482171 260.35124505 404.86073571 C262.75270666 404.87674222 265.15247373 404.86091979 267.55388176 404.84169275 C269.08122922 404.84367603 270.60857563 404.84752146 272.13591301 404.8534115 C272.85270226 404.8473388 273.56949151 404.84126611 274.30800164 404.8350094 C277.3199523 404.87727149 279.61133971 405.11584059 282.34050286 406.43031579 C284.46315298 408.91964188 284.4343581 410.54673889 284.50310051 413.79481775 C284.53371575 414.76185632 284.56433098 415.72889489 284.59587395 416.72523767 C284.61166497 417.95089441 284.62745598 419.17655114 284.64372551 420.439349 C284.72622551 424.337474 284.80872551 428.235599 284.89372551 432.251849 C292.81372551 432.251849 300.73372551 432.251849 308.89372551 432.251849 C309.10358492 424.48891488 309.10358492 424.48891488 309.28166497 416.72523767 C309.31477776 415.75819909 309.34789055 414.79116052 309.38200676 413.79481775 C309.40819085 412.80505944 309.43437493 411.81530114 309.46135247 410.79555017 C309.89372551 408.251849 309.89372551 408.251849 310.98088372 406.43031579 C313.94632059 404.60336445 316.55804228 404.86244705 320.01091301 404.8534115 C320.70508324 404.85054132 321.39925347 404.84767114 322.11445916 404.84471399 C323.58206796 404.84267424 325.049704 404.84819799 326.51726067 404.86073571 C328.75405184 404.87674398 330.98902296 404.86091121 333.22575676 404.84169275 C334.65414615 404.84367615 336.0825344 404.84752183 337.51091301 404.8534115 C339.45393303 404.85848718 339.45393303 404.85848718 341.43620598 404.8636654 C345.16227152 405.28199927 347.08021435 405.77275353 349.89372551 408.251849 C350.55314934 410.88734704 350.55314934 410.88734704 350.60075676 414.01356775 C350.62887444 415.02121179 350.65699212 416.02885583 350.68596184 417.06703454 C350.69264885 418.34489831 350.69933587 419.62276208 350.70622551 420.939349 C350.79903801 427.0340365 350.79903801 427.0340365 350.89372551 433.251849 C359.47372551 433.251849 368.05372551 433.251849 376.89372551 433.251849 C377.10360001 425.15979853 377.10360001 425.15979853 377.28166497 417.06703454 C377.31477776 416.0593905 377.34789055 415.05174646 377.38200676 414.01356775 C377.40819085 412.98191491 377.43437493 411.95026208 377.46135247 410.88734704 C377.89372551 408.251849 377.89372551 408.251849 379.00822747 406.41444665 C381.85596081 404.65853494 384.25191356 404.88038017 387.57341301 404.88856775 C388.22319115 404.88806924 388.87296929 404.88757074 389.54243767 404.88705713 C390.9159124 404.88939503 392.28939161 404.89910709 393.66276848 404.91566736 C395.7544717 404.93918871 397.84489298 404.93623574 399.93669426 404.92958337 C405.82793292 404.95416514 410.30862259 405.01780783 415.89372551 407.251849 C416.22372551 415.501849 416.55372551 423.751849 416.89372551 432.251849 C425.14372551 432.251849 433.39372551 432.251849 441.89372551 432.251849 C442.06407325 424.48890801 442.06407325 424.48890801 442.19157708 416.72523767 C442.22219231 415.75819909 442.25280755 414.79116052 442.28435051 413.79481775 C442.31577141 412.31018029 442.31577141 412.31018029 442.34782708 410.79555017 C442.89372551 408.251849 442.89372551 408.251849 444.31462395 406.42811853 C448.38167713 404.57322813 452.35173819 404.84479136 456.76872551 404.88856775 C457.73020501 404.88806924 458.6916845 404.88757074 459.68229973 404.88705713 C461.7130825 404.88939536 463.74386828 404.89910911 465.77458489 404.91566736 C468.88227051 404.93926203 471.98909806 404.93622597 475.09685051 404.92958337 C477.07081396 404.93516027 479.04477379 404.94227023 481.01872551 404.95106775 C481.94797844 404.95015634 482.87723137 404.94924493 483.83464348 404.9483059 C484.70234368 404.95783792 485.57004387 404.96736993 486.46403801 404.97719079 C487.22474602 404.98179818 487.98545403 404.98640558 488.7692138 404.99115258 C490.89372551 405.251849 490.89372551 405.251849 494.89372551 407.251849 C495.22372551 415.831849 495.55372551 424.411849 495.89372551 433.251849 C502.49372551 433.251849 509.09372551 433.251849 515.89372551 433.251849 C515.93110833 431.48196618 515.96849114 429.71208337 516.00700676 427.88856775 C516.07265452 425.57213988 516.13910226 423.25573458 516.20622551 420.939349 C516.22878411 419.7721029 516.2513427 418.60485681 516.27458489 417.40223962 C516.32775872 415.72484704 516.32775872 415.72484704 516.38200676 414.01356775 C516.40819085 412.98191491 516.43437493 411.95026208 516.46135247 410.88734704 C516.89372551 408.251849 516.89372551 408.251849 518.05192864 406.423724 C520.68148987 404.75062035 522.77227842 404.81578673 525.87419426 404.74013025 C526.92244378 404.70701745 527.97069329 404.67390466 529.05070794 404.63978845 C530.38077874 404.61489343 531.71084954 404.58999841 533.08122551 404.564349 C537.30935051 404.461224 541.53747551 404.358099 545.89372551 404.251849 C545.89372551 392.041849 545.89372551 379.831849 545.89372551 367.251849 C542.42574456 367.24774011 538.9577636 367.24363122 535.38469231 367.23939782 C523.94526499 367.2222248 512.50603204 367.17801715 501.06674778 367.11975843 C494.1289109 367.08508872 487.19127309 367.05975036 480.25334466 367.05629236 C473.56175661 367.05293104 466.87074539 367.02368128 460.17928803 366.97841722 C457.6223706 366.96539585 455.06539336 366.96115081 452.50844681 366.9656952 C448.93539043 366.97056797 445.36381681 366.94465398 441.79094231 366.91127282 C440.19411866 366.92421129 440.19411866 366.92421129 438.56503594 366.93741113 C435.91235735 366.89567952 433.48455519 366.82098699 430.89372551 366.251849 C427.45038534 362.52894033 427.49867744 359.0439317 427.46013176 354.0877865 C427.45488991 353.41389886 427.44964806 352.74001123 427.44424736 352.04570276 C427.43785251 350.62875505 427.43913123 349.21175409 427.44768059 347.79481775 C427.45622927 345.62589546 427.42733977 343.4595765 427.39567864 341.2909115 C427.39406735 339.91070395 427.39464278 338.53049175 427.39763176 337.1502865 C427.39577874 335.89909021 427.39392571 334.64789392 427.39201653 333.35878259 C427.89372551 330.251849 427.89372551 330.251849 429.62452614 328.58258611 C432.23190209 327.05353053 433.70042502 326.86965351 436.70262444 326.85312158 C437.66733666 326.84058343 438.63204888 326.82804528 439.6259948 326.81512719 C441.20339943 326.81727983 441.20339943 326.81727983 442.81267083 326.81947595 C443.92516198 326.8092843 445.03765313 326.79909265 446.18385613 326.78859216 C449.8632383 326.75838343 453.54236046 326.74918392 457.22185051 326.74013025 C459.77205062 326.72328946 462.32224238 326.70514004 464.87242424 326.68573266 C470.90008189 326.64302455 476.92766447 326.61352171 482.95541751 326.59040928 C489.8188214 326.56335631 496.68208506 326.51944493 503.54538882 326.47412056 C517.66144114 326.3812775 531.77749724 326.31182077 545.89372551 326.251849 C545.89372551 315.031849 545.89372551 303.811849 545.89372551 292.251849 C540.74504876 292.23783044 540.74504876 292.23783044 535.49235833 292.22352868 C524.16470187 292.18979534 512.83722011 292.13446855 501.50971138 292.06794626 C494.64031627 292.02813411 487.77103606 291.9957528 480.90153801 291.9808529 C474.27486554 291.96645884 467.64851281 291.93137268 461.02198327 291.88353997 C458.49101393 291.86867706 455.95999378 291.86080519 453.42898095 291.85996515 C449.88982249 291.85760859 446.35165863 291.83063301 442.81267083 291.79774743 C441.23526619 291.80529298 441.23526619 291.80529298 439.6259948 291.81299096 C432.56080901 291.71109882 432.56080901 291.71109882 429.24264824 289.42672998 C427.26514559 286.23838359 427.3923189 283.69562728 427.39763176 279.96669275 C427.39617653 279.26919412 427.3947213 278.57169549 427.39322197 277.85306054 C427.39487762 276.38300144 427.40640174 274.9129244 427.42717278 273.44301111 C427.4561785 271.19299584 427.44776752 268.94533097 427.43474114 266.69520837 C427.44097759 265.26485838 427.44936782 263.83451583 427.46013176 262.40419275 C427.4698803 261.10473718 427.47962883 259.80528161 427.48967278 258.46644861 C427.89372551 255.251849 427.89372551 255.251849 429.12356579 253.57585698 C431.41897803 251.85898133 432.76793748 251.86867445 435.62033379 251.85312158 C436.5920855 251.84058343 437.56383721 251.82804528 438.56503594 251.81512719 C439.62958504 251.81656228 440.69413414 251.81799737 441.79094231 251.81947595 C442.91304101 251.8092843 444.0351397 251.79909265 445.19124138 251.78859216 C448.90852568 251.75834351 452.62555281 251.74917788 456.34294426 251.74013025 C458.91699379 251.72329241 461.49103505 251.7051434 464.06506646 251.68573266 C470.15295975 251.64299779 476.24078583 251.61351024 482.32878107 251.59040928 C489.25987449 251.56337226 496.19082873 251.51945992 503.12182283 251.47412056 C517.37905954 251.38123488 531.6363132 251.31180002 545.89372551 251.251849 C545.89372551 239.041849 545.89372551 226.831849 545.89372551 214.251849 C542.39545159 214.24774011 538.89717766 214.24363122 535.29289544 214.23939782 C523.75368423 214.22222498 512.21466572 214.17801764 500.67559636 214.11975843 C493.67722562 214.08508838 486.67905225 214.05975031 479.68059075 214.05629236 C472.93065004 214.0529311 466.18128119 214.02368194 459.43147004 213.97841722 C456.85222365 213.96539562 454.27291799 213.96115089 451.69364274 213.9656952 C448.08945808 213.97056779 444.48674351 213.94465467 440.88273919 213.91127282 C439.27188942 213.92421129 439.27188942 213.92421129 437.62849724 213.93741113 C434.95510426 213.89571469 432.50550056 213.82222103 429.89372551 213.251849 C426.55493422 209.63396326 426.50929863 206.37709352 426.49528801 201.56044275 C426.49142083 200.28620446 426.48755364 199.01196618 426.48356926 197.69911462 C426.48985344 197.04080652 426.49613762 196.38249841 426.50261223 195.70424157 C426.51870888 193.69142918 426.50272195 191.68061595 426.48356926 189.66786462 C426.48743645 188.3949154 426.49130364 187.12196618 426.49528801 185.81044275 C426.4986718 184.64827234 426.50205559 183.48610193 426.50554192 182.28871423 C426.94106225 178.88152088 427.53952097 177.69778862 429.89372551 175.251849 C432.07448399 174.74404031 432.07448399 174.74404031 434.65829766 174.73286706 C436.12854645 174.71199785 436.12854645 174.71199785 437.62849724 174.69070703 C438.70239708 174.69573739 439.77629693 174.70076776 440.88273919 174.70595056 C442.01459145 174.69561288 443.14644372 174.6852752 444.31259453 174.67462426 C448.06243753 174.64507184 451.81174369 174.64369441 455.56169426 174.642474 C458.1581658 174.62750083 460.75462777 174.61077552 463.3510772 174.59236413 C469.49212798 174.55305938 475.63300848 174.53145782 481.77416366 174.51839024 C488.76573124 174.50252838 495.7571178 174.46411633 502.74858046 174.42379695 C517.13025466 174.34136453 531.51186802 174.29027039 545.89372551 174.251849 C545.89372551 158.741849 545.89372551 143.231849 545.89372551 127.251849 C367.36372551 127.251849 188.83372551 127.251849 4.89372551 127.251849 Z " fill="#1D2027" transform="translate(248.10627448558807,319.7481510043144)"/>
<path d="M0 0 C1.19645645 0.00321762 1.19645645 0.00321762 2.41708374 0.00650024 C11.29663764 0.08316551 20.13292934 0.67625306 28.98681641 1.31646729 C31.9322296 1.52926548 34.87810644 1.73413465 37.82421875 1.93701172 C41.78695013 2.21024114 45.74950849 2.48575771 49.71191406 2.76367188 C66.87454835 3.96456022 84.02609906 5.10452092 101.2265625 5.5859375 C113.90190054 5.94169299 126.50281954 6.85488505 139.14083862 7.85415649 C150.46352131 8.74895205 161.75662682 9.51964088 173.11254883 9.85742188 C177.89922374 10.00560775 182.48094097 10.45989866 187.2265625 11.1484375 C190.53645229 11.37831552 193.84907328 11.51414686 197.1640625 11.6484375 C198.88163609 11.71833123 200.59909094 11.79121169 202.31640625 11.8671875 C203.44357056 11.91262695 203.44357056 11.91262695 204.59350586 11.95898438 C206.66307494 12.10789356 208.72605 12.34866427 210.78271484 12.62329102 C216.2493846 13.32767359 221.73612971 13.55930027 227.23828125 13.83203125 C229.61718764 13.95523823 231.99609388 14.07844797 234.375 14.20166016 C235.60831055 14.26444153 236.84162109 14.3272229 238.11230469 14.39190674 C272.48728298 16.14630656 272.48728298 16.14630656 288.7265625 17.2734375 C290.37338013 17.38643188 290.37338013 17.38643188 292.0534668 17.50170898 C296.08292638 17.79160051 300.06885438 18.12814032 304.07739258 18.64404297 C307.9694272 19.1405234 311.85141258 19.42358422 315.76953125 19.6484375 C316.4598494 19.68904297 317.15016754 19.72964844 317.86140442 19.77148438 C320.045488 19.89961654 322.22975019 20.02427097 324.4140625 20.1484375 C360.18306973 22.20685401 360.18306973 22.20685401 364.91766357 26.78291321 C368.93656855 31.88964058 370.0897933 35.37778368 369.7421875 41.81640625 C369.71892395 42.66422165 369.6956604 43.51203705 369.67169189 44.38554382 C369.57018396 47.31073982 369.4066734 50.22704099 369.2265625 53.1484375 C369.15961182 54.25157288 369.09266113 55.35470825 369.02368164 56.49127197 C368.55008058 63.8784972 367.95916261 71.25200558 367.31005859 78.62573242 C366.97329472 82.49851694 366.66399698 86.37292256 366.35546875 90.24804688 C366.14228395 92.73191378 365.92749925 95.215644 365.7109375 97.69921875 C365.62221375 98.84715408 365.53348999 99.99508942 365.44207764 101.17781067 C364.85575035 107.49982106 364.20797168 112.10203039 360.2265625 117.1484375 C354.90563222 120.83890604 351.24348802 121.72175797 344.84863281 121.46459961 C344.06446613 121.44828208 343.28029945 121.43196455 342.47237015 121.41515255 C340.05511443 121.35438612 337.64202176 121.25895965 335.2265625 121.1484375 C334.5089122 121.11568348 333.7912619 121.08292946 333.05186462 121.04918289 C328.11990473 120.80467015 323.1977191 120.45457298 318.2734375 120.08984375 C316.71523404 119.97950902 315.15698478 119.86981935 313.59869385 119.76072693 C309.54304127 119.47546919 305.48792443 119.18326076 301.43292236 118.88891602 C294.19284861 118.36432774 286.95196133 117.85112471 279.7109375 117.33984375 C278.93325516 117.28467213 278.15557281 117.2295005 277.35432434 117.17265701 C267.59479702 116.48245995 257.84050824 115.89667906 248.0635376 115.51309204 C241.05239742 115.22413494 234.06608861 114.71732186 227.0703125 114.17578125 C214.48618109 113.20461726 201.89922303 112.50780898 189.29348755 111.88748169 C171.11428474 110.98770595 152.94416203 110.01340481 134.7890625 108.7109375 C133.53041382 108.62067795 133.53041382 108.62067795 132.24633789 108.52859497 C128.75985145 108.27764594 125.27349161 108.025015 121.78726196 107.77052307 C109.43564241 106.86887813 97.08131526 106.00594372 84.7265625 105.1484375 C82.89646133 105.02124329 82.89646133 105.02124329 81.02938843 104.89147949 C59.96592604 103.43196838 38.89538113 102.12862943 17.81561279 100.92868042 C15.90699827 100.8191494 13.99850352 100.70750658 12.09014893 100.59353638 C7.88224443 100.34383811 3.67910765 100.12009487 -0.53417969 99.98583984 C-1.26530975 99.95668991 -1.99643982 99.92753998 -2.74972534 99.89750671 C-4.66326256 99.82283929 -6.57748785 99.76639448 -8.49169922 99.71166992 C-15.12367403 98.57344898 -18.9432365 94.29185027 -22.7734375 89.1484375 C-25.50165885 80.96377345 -23.46823381 71.01670052 -22.75 62.58203125 C-22.59064468 60.67092308 -22.59064468 60.67092308 -22.42807007 58.72120667 C-22.20320001 56.04090128 -21.97656699 53.36081431 -21.74707031 50.6809082 C-21.4553886 47.27031922 -21.17314107 43.85902364 -20.89345741 40.44743252 C-20.62220409 37.15848017 -20.34183676 33.87030537 -20.0625 30.58203125 C-19.96345367 29.36930038 -19.86440735 28.15656952 -19.76235962 26.90708923 C-18.15587376 8.45160166 -18.15587376 8.45160166 -13.2734375 4.1484375 C-12.665 3.5915625 -12.0565625 3.0346875 -11.4296875 2.4609375 C-7.833533 -0.38884531 -4.39833716 -0.01851059 0 0 Z " fill="#1C1F26" transform="translate(390.7734375,187.8515625)"/>
<path d="M0 0 C82.5 0 165 0 250 0 C250 27.72 250 55.44 250 84 C167.5 84 85 84 0 84 C0 56.28 0 28.56 0 0 Z " fill="#FDFDFD" transform="translate(347,341)"/>
<path d="M0 0 C0.75382965 0.0501123 1.5076593 0.10022461 2.28433228 0.15185547 C22.88921434 1.51568245 43.49969675 2.73341072 64.11798096 3.875 C70.85739741 4.24824765 77.59670985 4.62335934 84.3359375 5 C85.07422979 5.04125 85.81252209 5.0825 86.57318687 5.125 C100.66881603 5.91391888 114.76053761 6.76167355 128.85177708 7.625 C135.78382379 8.04915973 142.71652063 8.46224104 149.64925385 8.875 C153.8246185 9.12390817 157.99988323 9.37448648 162.17515182 9.625 C165.66772783 9.83445037 169.16034942 10.04307749 172.65307617 10.25 C190.78318626 11.32481921 208.89692874 12.52990375 227 14 C226.60811736 30.16436236 226.09886495 46.30416453 225 62.4375 C224.8755249 64.3105481 224.8755249 64.3105481 224.74853516 66.22143555 C224.66651855 67.36394775 224.58450195 68.50645996 224.5 69.68359375 C224.4278125 70.68962646 224.355625 71.69565918 224.28125 72.73217773 C224 75 224 75 223 76 C220.79134455 75.97000096 218.58368637 75.86464565 216.37890625 75.73046875 C215.69692673 75.69013016 215.0149472 75.64979156 214.31230164 75.60823059 C212.06200284 75.47339507 209.81228705 75.33060268 207.5625 75.1875 C205.99382973 75.09155736 204.42514468 74.99585624 202.85644531 74.90039062 C193.9801891 74.35284606 185.1140005 73.72077388 176.25 73 C165.63315445 72.13785101 155.01195078 71.54100742 144.375 71 C132.92225344 70.41628259 121.47101451 69.82537865 110.02496338 69.12060547 C108.17285176 69.0067818 106.32056145 68.89587652 104.46826172 68.78515625 C96.98156884 68.31666003 89.51781382 67.70120236 82.046875 67.03125 C71.11752197 66.05634968 60.18217034 65.33105993 49.22924805 64.68081665 C44.02088212 64.37120544 38.81314279 64.05148277 33.60546875 63.73046875 C32.59555878 63.66824631 31.5856488 63.60602386 30.5451355 63.54191589 C19.01987235 62.82489172 7.50738802 61.96298304 -4 61 C-3.8611342 56.58308527 -3.71270728 52.16654244 -3.5625 47.75 C-3.52318359 46.49574219 -3.48386719 45.24148437 -3.44335938 43.94921875 C-3.40146484 42.74394531 -3.35957031 41.53867188 -3.31640625 40.296875 C-3.26141968 38.63156738 -3.26141968 38.63156738 -3.20532227 36.93261719 C-3.03036328 34.43367863 -2.60582533 32.4071767 -2 30 C-1.78562123 27.68534343 -1.61229387 25.36675684 -1.46484375 23.046875 C-1.38613037 21.83870117 -1.30741699 20.63052734 -1.22631836 19.38574219 C-1.13002182 17.84049627 -1.0337539 16.29524857 -0.9375 14.75 C-0.77051425 12.11879887 -0.60328921 9.48761379 -0.43579102 6.85644531 C-0.35353775 5.56232727 -0.27128448 4.26820923 -0.1865387 2.93487549 C-0.12498093 1.96636658 -0.06342316 0.99785767 0 0 Z " fill="#FCFBFC" transform="translate(394,207)"/>
<path d="M0 0 C1.07865326 -0.00623996 2.15730652 -0.01247993 3.26864624 -0.01890898 C6.89546342 -0.03490751 10.52161492 -0.02220737 14.1484375 -0.00964355 C16.74349359 -0.0150616 19.3385466 -0.02218246 21.93359375 -0.03088379 C28.25779314 -0.04868452 34.5818028 -0.04482221 40.90600967 -0.03323323 C46.04510304 -0.02420524 51.18414317 -0.02297214 56.32324219 -0.02732849 C57.41973996 -0.02824789 57.41973996 -0.02824789 58.53838921 -0.02918586 C60.02332816 -0.03046474 61.5082671 -0.0317616 62.99320602 -0.03307623 C76.92247659 -0.04448657 90.85164192 -0.03136123 104.78089523 -0.00987476 C116.73679537 0.00799666 128.69254017 0.00489268 140.6484375 -0.0135498 C154.52733926 -0.03494854 168.40614875 -0.04338789 182.2850647 -0.03110075 C183.76458739 -0.02982653 185.24411009 -0.02856905 186.72363281 -0.02732849 C187.81560628 -0.02640284 187.81560628 -0.02640284 188.92963982 -0.02545848 C194.06346728 -0.02200258 199.19723628 -0.02783908 204.33105469 -0.0372467 C211.23887883 -0.04962671 218.14640414 -0.04083189 225.05419922 -0.01766968 C227.59390778 -0.01236719 230.13364098 -0.01392247 232.67333984 -0.02272034 C236.13152254 -0.03359813 239.58875349 -0.02000508 243.046875 0 C244.56612076 -0.01338433 244.56612076 -0.01338433 246.11605835 -0.02703905 C252.86629261 0.04907225 252.86629261 0.04907225 256.1448822 2.33840179 C258.11671516 5.44161878 258.05791 7.84583991 258.08984375 11.50402832 C258.09604233 12.17458755 258.10224091 12.84514679 258.10862732 13.536026 C258.11571278 14.95055697 258.11257347 16.36517156 258.09985352 17.77966309 C258.08599746 19.93610308 258.12004908 22.08818991 258.15820312 24.2442627 C258.15915457 25.62251896 258.15729415 27.00078062 258.15234375 28.37902832 C258.1534314 30.24965942 258.1534314 30.24965942 258.15454102 32.15808105 C257.31719449 36.6026581 256.14656698 37.8022525 252.5234375 40.50793457 C249.00648866 41.24807264 245.54780141 41.18257916 241.96458435 41.14285278 C240.35144815 41.15455271 240.35144815 41.15455271 238.70572335 41.16648901 C235.09570527 41.18646115 231.48673522 41.17062295 227.87670898 41.15490723 C225.29135522 41.16168093 222.70600627 41.17058265 220.1206665 41.18145752 C213.82397513 41.20369397 207.5275817 41.19888734 201.23087864 41.18439431 C196.11420674 41.17310459 190.99761836 41.17156999 185.88093758 41.1770134 C184.78880608 41.17816264 184.78880608 41.17816264 183.67461132 41.17933511 C182.19555089 41.18093372 180.71649048 41.18255479 179.2374301 41.18419807 C165.36774347 41.19845649 151.49822206 41.18206093 137.62856252 41.15519623 C125.72437889 41.13285261 113.82043901 41.13674129 101.91625977 41.15979004 C88.09483468 41.18653838 74.27355436 41.19708814 60.45210701 41.18172872 C58.97877858 41.18013596 57.50545013 41.1785641 56.03212166 41.1770134 C55.30719845 41.17624202 54.58227523 41.17547064 53.83538465 41.17467589 C48.72357416 41.17035632 43.61185541 41.17765083 38.50005913 41.18941116 C31.62252821 41.20488592 24.74546627 41.19389341 17.86798096 41.16493988 C15.33956228 41.15831188 12.81110494 41.16025574 10.28270149 41.1712532 C6.83970682 41.18485144 3.39820566 41.16786009 -0.04469299 41.14285278 C-1.05295043 41.15400639 -2.06120787 41.16516 -3.10001856 41.1766516 C-9.83195543 41.08134797 -9.83195543 41.08134797 -13.09620571 38.17761803 C-14.87057038 34.74590237 -14.99385373 32.23738138 -15.0078125 28.37902832 C-15.0116394 27.70751236 -15.01546631 27.0359964 -15.01940918 26.34413147 C-15.02211941 24.93135062 -15.01482038 23.51851883 -14.99804688 22.10583496 C-14.97658516 19.94771366 -14.99789008 17.7929075 -15.0234375 15.6348877 C-15.02079472 14.25792726 -15.01567075 12.88096887 -15.0078125 11.50402832 C-15.00330078 10.25806885 -14.99878906 9.01210938 -14.99414062 7.72839355 C-14.4765625 4.50793457 -14.4765625 4.50793457 -13.09899902 2.33840179 C-8.97279192 -0.54170104 -4.91656127 -0.04331418 0 0 Z " fill="#1B1D25" transform="translate(390.4765625,493.4920654296875)"/>
<path d="M0 0 C39.27 0 78.54 0 119 0 C119 27.72 119 55.44 119 84 C79.73 84 40.46 84 0 84 C0 56.28 0 28.56 0 0 Z " fill="#FCFCFC" transform="translate(681,341)"/>
<path d="M0 0 C1.87636391 -0.01073296 1.87636391 -0.01073296 3.79063416 -0.02168274 C7.21466381 -0.03568293 10.6371806 -0.02727384 14.06108665 -0.00759244 C17.64754493 0.00881362 21.23395455 -0.00002154 24.82043457 -0.00511169 C30.84281857 -0.0096305 36.86489177 0.00622364 42.88720703 0.03417969 C49.84527349 0.06623095 56.80277946 0.06621537 63.76088572 0.04896492 C70.46024495 0.03308919 77.1593991 0.03984001 83.85874939 0.05690193 C86.70716322 0.06376624 89.55541237 0.06274647 92.40382385 0.05535698 C96.38271372 0.04625823 100.36102989 0.07025238 104.33984375 0.09765625 C106.11046425 0.08786743 106.11046425 0.08786743 107.91685486 0.07788086 C115.85303986 0.17094705 115.85303986 0.17094705 119.90011597 2.45069885 C122.39128973 5.51983025 122.38970739 8.30847093 122.33398438 12.09985352 C122.33876801 12.81717651 122.34355164 13.53449951 122.34848022 14.27355957 C122.35187473 15.78648071 122.34270322 17.29947564 122.32177734 18.81225586 C122.29499681 21.12463308 122.32153122 23.43215802 122.35351562 25.74438477 C122.35021144 27.2170517 122.34380499 28.68971562 122.33398438 30.16235352 C122.34410553 30.85099487 122.35422668 31.53963623 122.36465454 32.24914551 C122.28653438 35.45841167 121.93939721 37.29926034 119.90011597 39.81051636 C114.87824064 42.64092267 110.01151165 42.20422698 104.33984375 42.18041992 C102.46347984 42.19575272 102.46347984 42.19575272 100.54920959 42.21139526 C97.12540557 42.23441279 93.7025707 42.23933841 90.2787571 42.23426867 C87.41832866 42.23212657 84.5579892 42.24190247 81.69757986 42.25147951 C74.94919752 42.27365314 68.20103785 42.27455355 61.45263672 42.26245117 C54.4944285 42.25036439 47.53702838 42.27501386 40.57895803 42.31759131 C34.6000076 42.35282983 28.62131434 42.36482537 22.64226389 42.35831583 C19.07329223 42.35469138 15.50489737 42.35994801 11.9360199 42.3877449 C7.95702405 42.41757824 3.9790571 42.39895746 0 42.37573242 C-1.18041367 42.3910199 -2.36082733 42.40630737 -3.57701111 42.42205811 C-11.32395645 42.32189991 -11.32395645 42.32189991 -14.17612267 40.36362171 C-17.42244609 36.68299489 -17.97150149 33.4498594 -17.99414062 28.65844727 C-18.00058594 27.34682617 -18.00703125 26.03520508 -18.01367188 24.68383789 C-18.00319824 24.00796631 -17.99272461 23.33209473 -17.98193359 22.63574219 C-17.95508572 20.56918794 -17.98174904 18.50803989 -18.01367188 16.44165039 C-18.00722656 15.13131836 -18.00078125 13.82098633 -17.99414062 12.47094727 C-17.98850098 11.27848389 -17.98286133 10.08602051 -17.97705078 8.85742188 C-16.02905469 -0.85683031 -8.1225504 -0.08045525 0 0 Z " fill="#1C1F26" transform="translate(393.330078125,645.368896484375)"/>
<path d="M0 0 C1.26051682 -0.0087616 2.52103363 -0.01752319 3.81974792 -0.02655029 C7.27452667 -0.04933832 10.72855858 -0.04050963 14.18335032 -0.02465487 C17.80052236 -0.01199013 21.41763073 -0.0237378 25.0348053 -0.03158569 C31.11023428 -0.04068183 37.18535935 -0.02869682 43.26074219 -0.00488281 C50.28077828 0.02231657 57.30008803 0.01352349 64.32010645 -0.01401484 C70.35000248 -0.03672085 76.3796801 -0.03989846 82.40960509 -0.02682149 C86.00978817 -0.01903344 89.60963013 -0.01796686 93.20979118 -0.03450394 C97.22493203 -0.05165877 101.23882563 -0.02786927 105.25390625 0 C106.4452417 -0.01012115 107.63657715 -0.02024231 108.86401367 -0.03067017 C116.89376368 0.07272652 116.89376368 0.07272652 120.93055725 2.9780426 C123.21153276 6.43485244 123.3088576 8.64980885 123.28540039 12.77587891 C123.28544067 13.44739487 123.28548096 14.11891083 123.28552246 14.81077576 C123.28018382 16.22363701 123.26267137 17.63649917 123.23364258 19.04907227 C123.19169884 21.20698022 123.19258401 23.36177161 123.19946289 25.52001953 C123.12046906 35.8880354 123.12046906 35.8880354 121.34985352 39.02172852 C118.40889066 41.90423583 115.41249702 41.77757776 111.50515747 41.8008728 C110.43124756 41.80947327 109.35733765 41.81807373 108.25088501 41.82693481 C107.07263153 41.83119476 105.89437805 41.83545471 104.68041992 41.83984375 C103.43955627 41.84802124 102.19869263 41.85619873 100.92022705 41.86462402 C96.80497561 41.88948221 92.68976086 41.9061454 88.57446289 41.92041016 C87.15711333 41.9257708 85.73976383 41.93114831 84.3224144 41.93654251 C78.42726332 41.95816364 72.53211495 41.976901 66.63693428 41.9881649 C58.19048681 42.00441062 49.74449882 42.03761151 41.29822457 42.09456575 C35.357583 42.13325846 29.41706439 42.1527966 23.47630012 42.15808547 C19.92855211 42.16173917 16.38129458 42.17376158 12.83368301 42.2061882 C8.87620781 42.24184432 4.91931037 42.23789962 0.96166992 42.23046875 C-0.2125351 42.24687408 -1.38674011 42.26327942 -2.5965271 42.28018188 C-10.51512052 42.21916507 -10.51512052 42.21916507 -14.53578186 39.31887817 C-16.82084956 35.87444848 -16.93966274 33.67166098 -16.93725586 29.55322266 C-16.93966782 28.88407837 -16.94207977 28.21493408 -16.94456482 27.5255127 C-16.9435894 26.11688281 -16.93026809 24.70821314 -16.90527344 23.29980469 C-16.87093759 21.15247458 -16.88462887 19.00926016 -16.90405273 16.86181641 C-16.89715372 15.4881011 -16.8874808 14.11439635 -16.87475586 12.74072266 C-16.85844116 10.87963867 -16.85844116 10.87963867 -16.84179688 8.98095703 C-15.25486714 -0.93717222 -8.39552037 -0.07120432 0 0 Z " fill="#1B1D25" transform="translate(392.308349609375,570.35302734375)"/>
<path d="M0 0 C18.15 0 36.3 0 55 0 C55 27.72 55 55.44 55 84 C36.85 84 18.7 84 0 84 C0 56.28 0 28.56 0 0 Z " fill="#FCFCFC" transform="translate(258,341)"/>
<path d="M0 0 C1.36386337 -0.01029488 1.36386337 -0.01029488 2.75527954 -0.02079773 C5.76686129 -0.03912816 8.7779251 -0.03521885 11.78955078 -0.02954102 C13.8807899 -0.03410031 15.97202752 -0.03940512 18.06326294 -0.04542542 C22.44978922 -0.05436916 26.83613357 -0.05191957 31.22265625 -0.04199219 C36.84414419 -0.03050981 42.46500331 -0.05069663 48.08640862 -0.07990932 C52.40670768 -0.09825759 56.72685575 -0.09798143 61.04718399 -0.0922718 C63.11962897 -0.09211837 65.19208404 -0.09818056 67.26449203 -0.11056328 C70.16370778 -0.12544269 73.06175819 -0.11481788 75.9609375 -0.09765625 C77.24535736 -0.1121582 77.24535736 -0.1121582 78.5557251 -0.12695312 C82.55074259 -0.07743943 84.64274896 0.12397083 88.14123535 2.22166443 C90.87640901 5.25383263 90.83117614 7.97749979 90.77392578 11.87280273 C90.77870941 12.59012573 90.78349304 13.30744873 90.78842163 14.04650879 C90.79181614 15.55942993 90.78264463 17.07242486 90.76171875 18.58520508 C90.73493822 20.8975823 90.76147262 23.20510724 90.79345703 25.51733398 C90.79015284 26.99000092 90.7837464 28.46266484 90.77392578 29.93530273 C90.78910751 30.96826477 90.78910751 30.96826477 90.80459595 32.02209473 C90.72297728 35.37508339 90.41017019 37.07257313 88.13450623 39.5844574 C84.01732893 42.06131062 80.78822093 41.97393385 76.06860352 41.9375 C74.71652298 41.95042336 74.71652298 41.95042336 73.33712769 41.96360779 C70.36394367 41.98627188 67.39170166 41.97952914 64.41845703 41.97045898 C62.35009989 41.97569364 60.28174514 41.98196954 58.21339417 41.98924255 C53.88165033 41.99964703 49.550235 41.99508338 45.21850586 41.98046875 C39.6640915 41.96326391 34.11070993 41.98679731 28.55641079 42.02195835 C24.2867394 42.04390196 20.01731641 42.0424985 15.74760628 42.03419304 C13.69945199 42.03337218 11.6512797 42.04026112 9.60317802 42.05496407 C6.74204528 42.07235769 3.88278537 42.05791185 1.02172852 42.03515625 C0.17434616 42.04684845 -0.67303619 42.05854065 -1.5460968 42.07058716 C-5.66830927 42.00377999 -7.28281872 41.96134919 -10.41577148 39.08644104 C-12.31401868 35.63286254 -12.44910784 32.6455351 -12.38623047 28.80249023 C-12.3876857 28.08421051 -12.38914093 27.36593079 -12.39064026 26.62588501 C-12.38898682 25.11472497 -12.37748771 23.60354711 -12.35668945 22.0925293 C-12.32763579 19.77897894 -12.33610923 17.4677086 -12.34912109 15.15405273 C-12.3428859 13.68268744 -12.33449667 12.21132935 -12.32373047 10.73999023 C-12.32666611 10.04932465 -12.32960175 9.35865906 -12.33262634 8.64706421 C-12.23840545 3.86091196 -12.23840545 3.86091196 -10.60836601 1.72262478 C-7.56057143 -0.6162579 -3.69393916 -0.01932845 0 0 Z " fill="#1A1D25" transform="translate(557.89013671875,570.595947265625)"/>
<path d="M0 0 C0.91099457 -0.00540298 1.82198914 -0.01080597 2.7605896 -0.01637268 C5.7717132 -0.02887932 8.78188428 -0.01235591 11.79296875 0.00561523 C13.88517304 0.00546029 15.97737761 0.0039721 18.06958008 0.00120544 C22.45439339 -0.00017942 26.83887996 0.01239433 31.22363281 0.03515625 C36.84624204 0.06354093 42.46830824 0.06080462 48.09095764 0.04806614 C52.41122074 0.04111361 56.73135817 0.04889341 61.05160522 0.06132317 C63.12486286 0.0658418 65.19813396 0.06617088 67.27139282 0.06225777 C70.16818939 0.05934977 73.06423569 0.07583308 75.9609375 0.09765625 C76.81924164 0.0931546 77.67754578 0.08865295 78.56185913 0.08401489 C82.05260387 0.12774424 84.38122493 0.18920285 87.510849 1.82130432 C89.85204758 4.4982968 89.57119548 7.45100089 89.546875 10.83764648 C89.55307358 11.55401276 89.55927216 12.27037903 89.56565857 13.00845337 C89.57275724 14.52311851 89.56958167 16.03786167 89.55688477 17.55249023 C89.54305347 19.86255913 89.57703471 22.16854723 89.61523438 24.47827148 C89.61618599 25.9522308 89.61432447 27.42619517 89.609375 28.90014648 C89.62263321 29.58676361 89.63589142 30.27338074 89.64955139 30.98080444 C89.5819016 34.49266857 89.10033582 36.33891685 87.00610352 39.18310547 C82.89909813 42.33038459 79.9792932 42.20902467 74.93920898 42.14868164 C74.03782196 42.15744324 73.13643494 42.16620483 72.20773315 42.17523193 C69.23435036 42.19720208 66.26245986 42.18268281 63.2890625 42.16577148 C61.22070531 42.16914 59.15235005 42.17399292 57.08399963 42.18026733 C52.75217822 42.18763519 48.42087273 42.17693456 44.08911133 42.15356445 C38.53466259 42.12505922 32.98142084 42.14149273 27.42701626 42.17142677 C23.15732207 42.18948668 18.88791452 42.18374796 14.61821175 42.17078781 C12.57006754 42.16745112 10.52189736 42.17155008 8.47378349 42.18318558 C5.61259797 42.19587455 2.75337327 42.17654547 -0.10766602 42.14868164 C-0.95504837 42.1588028 -1.80243073 42.16892395 -2.67549133 42.17935181 C-6.80099995 42.10485533 -8.41358954 42.05981406 -11.54417419 39.17637634 C-13.47339386 35.67890375 -13.53683109 33.13956332 -13.55078125 29.15405273 C-13.55460815 28.46034073 -13.55843506 27.76662872 -13.56237793 27.05189514 C-13.56508881 25.59203634 -13.55778527 24.13212828 -13.54101562 22.67236328 C-13.51955666 20.44185034 -13.54085684 18.21454549 -13.56640625 15.98413086 C-13.56376346 14.56159774 -13.55863947 13.13906661 -13.55078125 11.71655273 C-13.54626953 10.42869873 -13.54175781 9.14084473 -13.53710938 7.81396484 C-13.01953125 4.50170898 -13.01953125 4.50170898 -11.55090332 2.3260498 C-7.80149264 -0.37612228 -4.51570312 -0.05086504 0 0 Z " fill="#1B1E25" transform="translate(559.01953125,645.498291015625)"/>
<path d="M0 0 C1.20482529 -0.01260864 2.40965057 -0.02521729 3.65098572 -0.03820801 C4.94895584 -0.03011108 6.24692596 -0.02201416 7.58422852 -0.01367188 C8.93417134 -0.01636801 10.28411227 -0.02025144 11.63404846 -0.02526855 C14.46113605 -0.03116011 17.28771745 -0.02261406 20.11474609 -0.00390625 C23.73090477 0.01886246 27.34587452 0.00577313 30.9619894 -0.01819611 C33.74938335 -0.03268277 36.53649764 -0.02803486 39.32390022 -0.01768494 C41.30305379 -0.01373411 43.2822184 -0.0258427 45.26133728 -0.03820801 C47.07330345 -0.01929504 47.07330345 -0.01929504 48.921875 0 C50.51261086 0.00477356 50.51261086 0.00477356 52.13548279 0.00964355 C55.76305599 0.64717745 57.44723786 1.92607264 60.02563477 4.51757812 C60.65673828 7.73803711 60.65673828 7.73803711 60.65454102 11.51367188 C60.65695297 12.18423111 60.65936493 12.85479034 60.66184998 13.54566956 C60.66087297 14.96027554 60.64751361 16.37492045 60.62255859 17.78930664 C60.5882869 19.9455066 60.60188949 22.09759528 60.62133789 24.25390625 C60.61443736 25.63217878 60.60476309 27.01044079 60.59204102 28.38867188 C60.58116455 29.63575928 60.57028809 30.88284668 60.55908203 32.16772461 C59.93741107 36.07159062 58.77521305 37.73201985 56.02563477 40.51757812 C53.37207572 41.84435765 51.32584966 41.67403176 48.35424805 41.71044922 C46.57197311 41.73454361 46.57197311 41.73454361 44.75369263 41.75912476 C39.32236185 41.80344951 33.89117649 41.84507135 28.4597168 41.86767578 C25.59025242 41.88102288 22.72149792 41.90888869 19.85229492 41.94970703 C16.38748937 41.99899863 12.92332833 42.02379186 9.4581871 42.03090286 C7.49713083 42.04088238 5.53624678 42.07513324 3.57546997 42.10971069 C2.38098236 42.10686066 1.18649475 42.10401062 -0.04418945 42.10107422 C-1.09516815 42.10916107 -2.14614685 42.11724792 -3.22897339 42.12557983 C-5.97436523 41.51757812 -5.97436523 41.51757812 -8.31265259 39.19621277 C-10.48600994 35.69282106 -10.49124115 33.27654631 -10.50561523 29.16992188 C-10.50944214 28.47620987 -10.51326904 27.78249786 -10.51721191 27.06776428 C-10.51992279 25.60790548 -10.51261925 24.14799742 -10.49584961 22.68823242 C-10.47439065 20.45771949 -10.49569082 18.23041463 -10.52124023 16 C-10.51859744 14.57746688 -10.51347346 13.15493575 -10.50561523 11.73242188 C-10.50110352 10.44456787 -10.4965918 9.15671387 -10.49194336 7.82983398 C-9.50373202 1.50574758 -6.02642525 0.01809798 0 0 Z " fill="#1B1E25" transform="translate(288.974365234375,570.482421875)"/>
<path d="M0 0 C1.81207947 -0.01407143 1.81207947 -0.01407143 3.6607666 -0.02842712 C4.96187378 -0.01719315 6.26298096 -0.00595917 7.60351562 0.00561523 C8.95585203 0.0054602 10.30818888 0.00397045 11.66052246 0.00120544 C14.49181818 -0.00017768 17.32260678 0.01236381 20.15380859 0.03515625 C23.77888294 0.06354153 27.40311496 0.06080285 31.02825165 0.04806614 C33.81987677 0.04110356 36.61130797 0.04890467 39.40290833 0.06132317 C41.38818259 0.06802133 43.37348414 0.06369867 45.35876465 0.05921936 C46.56681763 0.07190353 47.77487061 0.08458771 49.01953125 0.09765625 C50.08224243 0.10305923 51.14495361 0.10846222 52.23986816 0.11402893 C55.39377938 0.55545627 56.78291018 1.24605544 59.00976562 3.50170898 C59.42915727 6.08869321 59.59476619 8.24837367 59.57617188 10.83764648 C59.58237045 11.55401276 59.58856903 12.27037903 59.59495544 13.00845337 C59.60205412 14.52311851 59.59887855 16.03786167 59.58618164 17.55249023 C59.57235035 19.86255913 59.60633159 22.16854723 59.64453125 24.47827148 C59.64548286 25.9522308 59.64362135 27.42619517 59.63867188 28.90014648 C59.65193008 29.58676361 59.66518829 30.27338074 59.67884827 30.98080444 C59.61340428 34.37815985 59.01218195 36.49757123 57.29663086 39.43530273 C52.06053682 42.7271619 46.85259697 42.21488853 40.79101562 42.16577148 C38.85506531 42.17294693 38.85506531 42.17294693 36.88000488 42.18026733 C34.15293333 42.18762328 31.42668282 42.17697683 28.69970703 42.15356445 C25.21223856 42.12507456 21.72669391 42.14148581 18.23929596 42.17142677 C14.90221686 42.19388799 11.56564932 42.1781403 8.22851562 42.16577148 C6.97945435 42.17589264 5.73039307 42.18601379 4.44348145 42.19644165 C-4.07556949 42.08116206 -4.07556949 42.08116206 -8.27709961 39.41943359 C-10.42529086 35.76074276 -10.62152337 33.38977321 -10.61914062 29.15405273 C-10.62155258 28.46034073 -10.62396454 27.76662872 -10.62644958 27.05189514 C-10.62547405 25.59199276 -10.61215011 24.13205205 -10.5871582 22.67236328 C-10.55277236 20.44167286 -10.56652641 18.21493213 -10.5859375 15.98413086 C-10.57904016 14.56158802 -10.56936878 13.13905535 -10.55664062 11.71655273 C-10.54576416 10.42869873 -10.5348877 9.14084473 -10.52368164 7.81396484 C-9.50413108 1.48341909 -6.04261751 0.00094484 0 0 Z " fill="#1A1D25" transform="translate(288.990234375,645.498291015625)"/>
<path d="M0 0 C1.22814926 -0.00945648 2.45629852 -0.01891296 3.72166443 -0.02865601 C5.06322552 -0.0232857 6.40478368 -0.0171326 7.74633789 -0.01025391 C9.12252456 -0.01227509 10.49871018 -0.01518689 11.87489319 -0.01895142 C14.75914711 -0.02337424 17.64312225 -0.01694643 20.52734375 -0.00292969 C24.22079431 0.01414656 27.91359012 0.00433136 31.60701656 -0.01364708 C34.4492331 -0.02450003 37.29129505 -0.02103146 40.13351631 -0.0132637 C41.49505249 -0.01126502 42.85660279 -0.01370935 44.21812248 -0.02070236 C46.12327676 -0.02833894 48.02848035 -0.01463141 49.93359375 0 C51.55883217 0.00358017 51.55883217 0.00358017 53.21690369 0.00723267 C56.40461164 0.43868453 57.79308939 1.09841851 60.03149414 3.38818359 C60.43771864 6.06773234 60.59293197 8.33322529 60.56274414 11.01318359 C60.5684845 12.12814209 60.5684845 12.12814209 60.57434082 13.265625 C60.5770605 14.83578853 60.56969514 16.40599732 60.55297852 17.97607422 C60.53156618 20.38009603 60.55277448 22.78112977 60.57836914 25.18505859 C60.57572587 26.71110686 60.5706009 28.23715326 60.56274414 29.76318359 C60.57084106 30.48199707 60.57893799 31.20081055 60.58728027 31.94140625 C60.4937833 36.91556486 60.4937833 36.91556486 58.38026428 39.0763092 C55.39326759 40.74465656 53.34936665 40.7752031 49.93359375 40.79223633 C48.08664162 40.81126259 48.08664162 40.81126259 46.20237732 40.83067322 C44.86286246 40.82862207 43.52334876 40.8256343 42.18383789 40.82177734 C40.80668378 40.82633942 39.42953195 40.83164507 38.05238342 40.83766174 C35.16991916 40.84658699 32.28773207 40.8441755 29.40527344 40.83422852 C25.71049888 40.82272085 22.0166775 40.84297915 18.32202816 40.87214565 C15.47984237 40.89048262 12.63788629 40.89022065 9.7956562 40.88450813 C8.43328066 40.88435471 7.07088976 40.89041682 5.70857048 40.90279961 C3.80576684 40.91766276 1.90280618 40.90442675 0 40.88989258 C-1.08269669 40.88972641 -2.16539337 40.88956024 -3.28089905 40.88938904 C-5.96850586 40.38818359 -5.96850586 40.38818359 -7.817276 38.57156372 C-9.48401582 35.4104864 -9.39756564 32.37265239 -9.36694336 28.88427734 C-9.36981354 28.16458267 -9.37268372 27.444888 -9.37564087 26.7033844 C-9.37767732 25.18628144 -9.37217672 23.66915197 -9.35961914 22.15209961 C-9.34353443 19.82980786 -9.3594924 17.5092501 -9.37866211 15.18701172 C-9.37668006 13.71109642 -9.37283718 12.2351822 -9.36694336 10.75927734 C-9.37301605 10.0654747 -9.37908875 9.37167206 -9.38534546 8.65684509 C-9.31581646 3.89573757 -9.31581646 3.89573757 -7.817276 1.70579529 C-5.17867826 -0.17472364 -3.22260394 0.00710416 0 0 Z " fill="#1A1D25" transform="translate(287.968505859375,493.61181640625)"/>
<path d="M0 0 C6.6 0 13.2 0 20 0 C20 27.72 20 55.44 20 84 C13.4 84 6.8 84 0 84 C0 56.28 0 28.56 0 0 Z " fill="#FBFBFC" transform="translate(630,341)"/>
<path d="M0 0 C3.04172719 -0.0271045 6.08320997 -0.04688964 9.125 -0.0625 C9.9809375 -0.07087891 10.836875 -0.07925781 11.71875 -0.08789062 C12.55664062 -0.09111328 13.39453125 -0.09433594 14.2578125 -0.09765625 C15.0223877 -0.10289307 15.78696289 -0.10812988 16.57470703 -0.11352539 C19.43801255 0.0205029 22.18256184 0.48530997 25 1 C25.20842634 11.71432222 24.66938258 22.25374069 23.77319336 32.92749023 C23.56074915 35.45835809 23.3568021 37.98980356 23.15429688 40.52148438 C23.0213172 42.15889353 22.88787056 43.79626485 22.75390625 45.43359375 C22.66321617 46.54788002 22.66321617 46.54788002 22.57069397 47.68467712 C22.16693658 52.47543669 21.62316519 57.23270231 21 62 C12.60793921 62.13608747 4.35856257 61.73315326 -4 61 C-4.19931246 49.21938199 -3.7056709 37.59097113 -2.77319336 25.84741211 C-2.55917762 23.14555639 -2.35607769 20.44302889 -2.15429688 17.74023438 C-2.02145876 16.00776443 -1.88801847 14.27534053 -1.75390625 12.54296875 C-1.6934462 11.74199265 -1.63298615 10.94101654 -1.57069397 10.11576843 C-1.29126856 6.64240719 -0.90918044 3.36191157 0 0 Z " fill="#F8F9F9" transform="translate(664,225)"/>
<path d="M0 0 C0 16.83 0 33.66 0 51 C-8.49604173 51 -11.62731909 50.06410036 -18 45 C-24.86906726 37.50647207 -25.525549 31.33576888 -25.3359375 21.44140625 C-25.07027223 16.13798106 -23.80374297 12.7580249 -20 9 C-19.0409375 8.03513672 -19.0409375 8.03513672 -18.0625 7.05078125 C-11.94251565 1.33647768 -8.62047747 0 0 0 Z " fill="#F5F5F6" transform="translate(234,358)"/>
<path d="M0 0 C1.79158489 -0.02696365 3.58328473 -0.04637917 5.375 -0.0625 C6.37273438 -0.07410156 7.37046875 -0.08570313 8.3984375 -0.09765625 C11 0 11 0 13 1 C12.24770642 35.56574924 12.24770642 35.56574924 10 51 C5.38 51 0.76 51 -4 51 C-3.27858663 39.67451045 -2.39489538 28.37023876 -1.4375 17.0625 C-1.29740812 15.39649429 -1.15743354 13.73047871 -1.01757812 12.06445312 C-0.67973185 8.04285419 -0.34031829 4.02139047 0 0 Z " fill="#F2F4F4" transform="translate(720,229)"/>
<path d="M0 0 C86.46 0 172.92 0 262 0 C262 0.66 262 1.32 262 2 C255.4 1.67 248.8 1.34 242 1 C242 1.99 242 2.98 242 4 C241.34 4 240.68 4 240 4 C240 3.34 240 2.68 240 2 C238.50218994 2.00785522 238.50218994 2.00785522 236.97412109 2.01586914 C233.25049749 2.03404242 229.52687776 2.0454769 225.80322266 2.05493164 C224.19514302 2.05994375 222.5870679 2.06675519 220.97900391 2.07543945 C218.66047039 2.08764226 216.34199741 2.09325964 214.0234375 2.09765625 C213.31069672 2.10281754 212.59795593 2.10797882 211.86361694 2.11329651 C207.80143571 2.11374755 203.98511894 1.78775607 200 1 C200 1.99 200 2.98 200 4 C199.34 4 198.68 4 198 4 C198 3.01 198 2.02 198 1 C197.50644012 1.16233124 197.01288025 1.32466248 196.50436401 1.49191284 C192.98561368 2.20579942 189.50469415 2.13889444 185.93017578 2.12939453 C185.1199295 2.13114685 184.30968323 2.13289917 183.47488403 2.13470459 C180.79833835 2.13910306 178.12185885 2.1361916 175.4453125 2.1328125 C173.58210233 2.13348625 171.71889224 2.13445686 169.85568237 2.13571167 C165.95016646 2.13718604 162.04467341 2.13504294 158.13916016 2.13037109 C153.14017471 2.12468189 148.14124306 2.12794935 143.1422596 2.13394356 C139.29376828 2.13756295 135.44528965 2.1364041 131.59679794 2.13381577 C129.7540575 2.1331499 127.9113159 2.133963 126.06857681 2.13629532 C123.48855813 2.13884357 120.90862557 2.13495029 118.32861328 2.12939453 C117.19220398 2.13243088 117.19220398 2.13243088 116.03283691 2.13552856 C111.91731486 2.11916629 108.0377391 1.80106732 104 1 C104 1.99 104 2.98 104 4 C103.34 4 102.68 4 102 4 C102 3.01 102 2.02 102 1 C101.42665546 1.16251975 100.85331093 1.3250395 100.26259232 1.49248409 C98.01956654 1.99561108 96.09239413 2.12319538 93.79852295 2.12025452 C92.96843719 2.12162918 92.13835144 2.12300385 91.28311157 2.12442017 C90.3811203 2.12082489 89.47912903 2.11722961 88.54980469 2.11352539 C87.11515366 2.11374443 87.11515366 2.11374443 85.65151978 2.1139679 C82.49161508 2.11327148 79.3317694 2.10549174 76.171875 2.09765625 C73.98040804 2.09579111 71.78894067 2.09436766 69.59747314 2.09336853 C63.83039193 2.08955094 58.06333591 2.07972709 52.29626465 2.06866455 C46.4110549 2.05843416 40.52584108 2.05386742 34.640625 2.04882812 C23.09373893 2.03810417 11.54687156 2.02103681 0 2 C0 1.34 0 0.68 0 0 Z " fill="#08131A" transform="translate(380,494)"/>
<path d="M0 0 C31.02 0 62.04 0 94 0 C94 0.66 94 1.32 94 2 C81.46 2 68.92 2 56 2 C56 2.66 56 3.32 56 4 C55.34 4 54.68 4 54 4 C54 3.34 54 2.68 54 2 C36.18 2 18.36 2 0 2 C0 1.34 0 0.68 0 0 Z " fill="#212831" transform="translate(550,646)"/>
<path d="M0 0 C3.63 0 7.26 0 11 0 C8 3 8 3 5.95703125 3.07421875 C2.97851562 2.53710938 2.97851562 2.53710938 0 2 C0 1.34 0 0.68 0 0 Z " fill="#16161B" transform="translate(729,571)"/>
</svg>
